<svg width="849" height="631" viewBox="0 0 849 631" fill="none" xmlns="http://www.w3.org/2000/svg">
<path d="M430.449 425.925L594.961 131.895L761.278 425.925L596.478 523.175L430.449 425.925Z" fill="#EBF4FF" fill-opacity="0.9"/>
<path d="M430.449 425.925L594.961 131.895L761.278 425.925M430.449 425.925L596.478 523.175L761.278 425.925M430.449 425.925L513.464 378.685L596.478 331.445L761.278 425.925" stroke="#4C51BF" stroke-width="3.64629"/>
<path d="M516.289 407.058L596.788 268.162L676.691 407.058L596.788 454.253L516.289 407.058Z" fill="url(#paint0_linear_6535_8006)" fill-opacity="0.9"/>
<path d="M428.569 427.786L596.832 130.024L597.116 330.516V525.056L428.569 427.786Z" fill="url(#paint1_linear_6535_8006)"/>
<path d="M495.927 257.598L457.842 279.586L495.927 301.574L534.011 279.586L514.969 268.592L495.927 257.598Z" fill="#EBF4FF" stroke="#535BCB" stroke-width="3.64629" stroke-linejoin="round"/>
<path d="M457.842 323.608L495.927 345.596V301.62L457.842 279.632V323.608Z" fill="url(#paint2_linear_6535_8006)" stroke="#535BCB" stroke-width="3.64629" stroke-linejoin="round"/>
<path d="M534.011 323.611V279.635L495.927 301.623V345.599L534.011 323.611Z" fill="url(#paint3_linear_6535_8006)" stroke="#535BCB" stroke-width="3.64629" stroke-linejoin="round"/>
<path d="M424.24 574.542L403.279 586.644L424.24 598.746L445.201 586.644L434.721 580.593L424.24 574.542Z" fill="#EBF4FF"/>
<path d="M403.279 610.873L424.24 622.975V598.771L403.279 586.669V610.873Z" fill="url(#paint4_linear_6535_8006)"/>
<path d="M445.201 610.875V586.671L424.24 598.773V622.977L445.201 610.875Z" fill="url(#paint5_linear_6535_8006)"/>
<path d="M424.171 539.717L403.21 551.819L424.171 563.921L445.133 551.819L434.652 545.768L424.171 539.717Z" fill="#EBF4FF" stroke="#535BCB" stroke-width="3.64629" stroke-linejoin="round"/>
<path d="M403.21 576.048L424.171 588.15V563.946L403.21 551.844V576.048Z" fill="url(#paint6_linear_6535_8006)" stroke="#535BCB" stroke-width="3.64629" stroke-linejoin="round"/>
<path d="M445.132 576.05V551.846L424.171 563.948V588.152L445.132 576.05Z" fill="url(#paint7_linear_6535_8006)" stroke="#535BCB" stroke-width="3.64629" stroke-linejoin="round"/>
<path d="M428.253 131.014L385.814 155.516L428.253 180.019L470.692 155.516L449.473 143.265L428.253 131.014Z" fill="#FF6BE4" stroke="#535BCB" stroke-width="3.64629" stroke-linejoin="round"/>
<path d="M385.814 204.572L428.253 229.075V180.07L385.814 155.568V204.572Z" fill="url(#paint8_linear_6535_8006)" stroke="#535BCB" stroke-width="3.64629" stroke-linejoin="round"/>
<path d="M470.692 204.575V155.571L428.253 180.073V229.077L470.692 204.575Z" fill="url(#paint9_linear_6535_8006)" stroke="#535BCB" stroke-width="3.64629" stroke-linejoin="round"/>
<path d="M955.08 15.9086L751.168 138.442" stroke="url(#paint10_linear_6535_8006)" stroke-width="3.64629" stroke-dasharray="7.29 7.29"/>
<g filter="url(#filter0_f_6535_8006)">
<circle r="25.135" transform="matrix(1 -1.5885e-07 -1.5885e-07 -1 757.596 133.886)" fill="url(#paint11_radial_6535_8006)" fill-opacity="0.5"/>
</g>
<ellipse rx="7.50401" ry="7.50401" transform="matrix(1 -1.5885e-07 -1.5885e-07 -1 757.737 133.745)" fill="#92EFE6"/>
<path d="M427.75 67.3535L400.4 83.1441L427.75 98.9347L455.1 83.1441L441.425 75.2488L427.75 67.3535Z" fill="#B7F4EE" stroke="#535BCB" stroke-width="3.64629" stroke-linejoin="round"/>
<path d="M400.4 114.758L427.75 130.549V98.9678L400.4 83.1772V114.758Z" fill="url(#paint12_linear_6535_8006)" stroke="#535BCB" stroke-width="3.64629" stroke-linejoin="round"/>
<path d="M455.1 114.761V83.1802L427.75 98.9707V130.552L455.1 114.761Z" fill="url(#paint13_linear_6535_8006)" stroke="#535BCB" stroke-width="3.64629" stroke-linejoin="round"/>
<path d="M719.14 108.51L678.209 132.142L719.14 155.773L760.071 132.142L739.606 120.326L719.14 108.51Z" fill="#B7F4EE"/>
<path d="M678.209 179.453L719.14 203.084V155.821L678.209 132.19V179.453Z" fill="url(#paint14_linear_6535_8006)"/>
<path d="M760.071 179.457V132.194L719.14 155.826V203.089L760.071 179.457Z" fill="url(#paint15_linear_6535_8006)"/>
<path d="M295.703 454.036L254.772 477.668L295.703 501.299L336.634 477.668L316.168 465.852L295.703 454.036Z" fill="#B7F4EE"/>
<path d="M254.771 524.979L295.702 548.61V501.347L254.771 477.716V524.979Z" fill="url(#paint16_linear_6535_8006)"/>
<path d="M336.633 524.984V477.721L295.702 501.352V548.615L336.633 524.984Z" fill="url(#paint17_linear_6535_8006)"/>
<path d="M897.086 697.795L600.016 525.057" stroke="url(#paint18_linear_6535_8006)" stroke-width="3.64629" stroke-dasharray="7.29 7.29"/>
<path d="M323.151 513.526L302.19 525.628L323.151 537.73L344.113 525.628L333.632 519.577L323.151 513.526Z" fill="#EBF4FF" stroke="#535BCB" stroke-width="3.64629" stroke-linejoin="round"/>
<path d="M302.19 549.857L323.151 561.959V537.755L302.19 525.653V549.857Z" fill="url(#paint19_linear_6535_8006)" stroke="#535BCB" stroke-width="3.64629" stroke-linejoin="round"/>
<path d="M344.112 549.859V525.655L323.151 537.757V561.961L344.112 549.859Z" fill="url(#paint20_linear_6535_8006)" stroke="#535BCB" stroke-width="3.64629" stroke-linejoin="round"/>
<path d="M295.081 -44.5649L595.605 130.949" stroke="url(#paint21_linear_6535_8006)" stroke-width="3.64629" stroke-dasharray="7.29 7.29"/>
<path d="M628.532 -48.0001L902.699 110.381" stroke="url(#paint22_linear_6535_8006)" stroke-width="3.64629" stroke-dasharray="7.29 7.29"/>
<path d="M304.061 101.027L420.982 32.7446" stroke="#FF6BE4" stroke-width="3.64629" stroke-dasharray="7.29 7.29"/>
<g filter="url(#filter1_f_6535_8006)">
<circle r="25.135" transform="matrix(1 -1.5885e-07 -1.5885e-07 -1 596.712 522.76)" fill="url(#paint23_radial_6535_8006)" fill-opacity="0.5"/>
</g>
<ellipse rx="7.50401" ry="7.50401" transform="matrix(1 -1.5885e-07 -1.5885e-07 -1 597.5 522.866)" fill="#92EFE6"/>
<g filter="url(#filter2_f_6535_8006)">
<circle r="25.135" transform="matrix(1 -1.5885e-07 -1.5885e-07 -1 593.815 131.585)" fill="url(#paint24_radial_6535_8006)" fill-opacity="0.5"/>
</g>
<ellipse rx="7.50401" ry="7.50401" transform="matrix(1 -1.5885e-07 -1.5885e-07 -1 594.603 131.691)" fill="#92EFE6"/>
<g filter="url(#filter3_f_6535_8006)">
<circle r="25.0606" transform="matrix(1 -1.5885e-07 -1.5885e-07 -1 423.594 29.744)" fill="url(#paint25_radial_6535_8006)" fill-opacity="0.5"/>
</g>
<ellipse rx="7.48182" ry="7.48182" transform="matrix(1 -1.5885e-07 -1.5885e-07 -1 422.852 29.5509)" fill="#FF6AE4"/>
<g filter="url(#filter4_f_6535_8006)">
<circle r="25.0606" transform="matrix(1 -1.5885e-07 -1.5885e-07 -1 303.866 100.833)" fill="url(#paint26_radial_6535_8006)" fill-opacity="0.5"/>
</g>
<ellipse rx="7.48182" ry="7.48182" transform="matrix(1 -1.5885e-07 -1.5885e-07 -1 304.059 101.028)" fill="#FF6AE4"/>
<path d="M1.00021 669.862L254.122 524.306" stroke="url(#paint27_linear_6535_8006)" stroke-width="3.64629" stroke-dasharray="7.29 7.29"/>
<g filter="url(#filter5_f_6535_8006)">
<circle r="16.9488" transform="matrix(1 -1.5885e-07 -1.5885e-07 -1 253.949 523.949)" fill="url(#paint28_radial_6535_8006)" fill-opacity="0.5"/>
</g>
<ellipse rx="5.06003" ry="5.06003" transform="matrix(1 -1.5885e-07 -1.5885e-07 -1 254.06 523.837)" fill="#92EFE6"/>
<g filter="url(#filter6_f_6535_8006)">
<circle r="16.9488" transform="matrix(1 -1.5885e-07 -1.5885e-07 -1 126.949 596.949)" fill="url(#paint29_radial_6535_8006)" fill-opacity="0.5"/>
</g>
<ellipse rx="5.06003" ry="5.06003" transform="matrix(1 -1.5885e-07 -1.5885e-07 -1 127.219 596.678)" fill="#92EFE6"/>
<path d="M718.869 301.632L680.785 323.62L718.869 345.608L756.954 323.62L737.912 312.626L718.869 301.632Z" fill="#EBF4FF" stroke="#535BCB" stroke-width="3.64629" stroke-linejoin="round"/>
<path d="M680.785 367.642L718.87 389.63V345.654L680.785 323.666V367.642Z" fill="url(#paint30_linear_6535_8006)" stroke="#535BCB" stroke-width="3.64629" stroke-linejoin="round"/>
<path d="M756.954 367.645V323.669L718.87 345.657V389.633L756.954 367.645Z" fill="url(#paint31_linear_6535_8006)" stroke="#535BCB" stroke-width="3.64629" stroke-linejoin="round"/>
<defs>
<filter id="filter0_f_6535_8006" x="723.345" y="99.6348" width="68.5015" height="68.5015" filterUnits="userSpaceOnUse" color-interpolation-filters="sRGB">
<feFlood flood-opacity="0" result="BackgroundImageFix"/>
<feBlend mode="normal" in="SourceGraphic" in2="BackgroundImageFix" result="shape"/>
<feGaussianBlur stdDeviation="4.55786" result="effect1_foregroundBlur_6535_8006"/>
</filter>
<filter id="filter1_f_6535_8006" x="562.461" y="488.509" width="68.5015" height="68.501" filterUnits="userSpaceOnUse" color-interpolation-filters="sRGB">
<feFlood flood-opacity="0" result="BackgroundImageFix"/>
<feBlend mode="normal" in="SourceGraphic" in2="BackgroundImageFix" result="shape"/>
<feGaussianBlur stdDeviation="4.55786" result="effect1_foregroundBlur_6535_8006"/>
</filter>
<filter id="filter2_f_6535_8006" x="559.564" y="97.334" width="68.5015" height="68.5015" filterUnits="userSpaceOnUse" color-interpolation-filters="sRGB">
<feFlood flood-opacity="0" result="BackgroundImageFix"/>
<feBlend mode="normal" in="SourceGraphic" in2="BackgroundImageFix" result="shape"/>
<feGaussianBlur stdDeviation="4.55786" result="effect1_foregroundBlur_6535_8006"/>
</filter>
<filter id="filter3_f_6535_8006" x="389.418" y="-4.43213" width="68.3528" height="68.3525" filterUnits="userSpaceOnUse" color-interpolation-filters="sRGB">
<feFlood flood-opacity="0" result="BackgroundImageFix"/>
<feBlend mode="normal" in="SourceGraphic" in2="BackgroundImageFix" result="shape"/>
<feGaussianBlur stdDeviation="4.55786" result="effect1_foregroundBlur_6535_8006"/>
</filter>
<filter id="filter4_f_6535_8006" x="269.689" y="66.6567" width="68.3528" height="68.3525" filterUnits="userSpaceOnUse" color-interpolation-filters="sRGB">
<feFlood flood-opacity="0" result="BackgroundImageFix"/>
<feBlend mode="normal" in="SourceGraphic" in2="BackgroundImageFix" result="shape"/>
<feGaussianBlur stdDeviation="4.55786" result="effect1_foregroundBlur_6535_8006"/>
</filter>
<filter id="filter5_f_6535_8006" x="227.884" y="497.884" width="52.1289" height="52.1289" filterUnits="userSpaceOnUse" color-interpolation-filters="sRGB">
<feFlood flood-opacity="0" result="BackgroundImageFix"/>
<feBlend mode="normal" in="SourceGraphic" in2="BackgroundImageFix" result="shape"/>
<feGaussianBlur stdDeviation="4.55786" result="effect1_foregroundBlur_6535_8006"/>
</filter>
<filter id="filter6_f_6535_8006" x="100.884" y="570.884" width="52.1289" height="52.1289" filterUnits="userSpaceOnUse" color-interpolation-filters="sRGB">
<feFlood flood-opacity="0" result="BackgroundImageFix"/>
<feBlend mode="normal" in="SourceGraphic" in2="BackgroundImageFix" result="shape"/>
<feGaussianBlur stdDeviation="4.55786" result="effect1_foregroundBlur_6535_8006"/>
</filter>
<linearGradient id="paint0_linear_6535_8006" x1="635.964" y1="320.794" x2="516.306" y2="413.548" gradientUnits="userSpaceOnUse">
<stop stop-color="#01B0A5"/>
<stop offset="0.319387" stop-color="#71E8DF"/>
<stop offset="0.652726" stop-color="#B7F4EE"/>
<stop offset="1" stop-color="#D9F9F6"/>
</linearGradient>
<linearGradient id="paint1_linear_6535_8006" x1="512.843" y1="137.21" x2="512.843" y2="525.056" gradientUnits="userSpaceOnUse">
<stop stop-color="#EBF4FF"/>
<stop offset="1" stop-color="#EBF4FF" stop-opacity="0"/>
</linearGradient>
<linearGradient id="paint2_linear_6535_8006" x1="476.884" y1="279.632" x2="476.884" y2="345.596" gradientUnits="userSpaceOnUse">
<stop stop-color="#EBF4FF"/>
<stop offset="1" stop-color="#EBF4FF" stop-opacity="0"/>
</linearGradient>
<linearGradient id="paint3_linear_6535_8006" x1="514.969" y1="279.635" x2="514.969" y2="345.599" gradientUnits="userSpaceOnUse">
<stop stop-color="#EBF4FF"/>
<stop offset="1" stop-color="#EBF4FF" stop-opacity="0"/>
</linearGradient>
<linearGradient id="paint4_linear_6535_8006" x1="413.759" y1="586.669" x2="413.759" y2="622.975" gradientUnits="userSpaceOnUse">
<stop stop-color="#EBF4FF"/>
<stop offset="1" stop-color="#EBF4FF" stop-opacity="0"/>
</linearGradient>
<linearGradient id="paint5_linear_6535_8006" x1="434.72" y1="586.671" x2="434.72" y2="622.977" gradientUnits="userSpaceOnUse">
<stop stop-color="#EBF4FF"/>
<stop offset="1" stop-color="#EBF4FF" stop-opacity="0"/>
</linearGradient>
<linearGradient id="paint6_linear_6535_8006" x1="413.691" y1="551.844" x2="413.691" y2="588.15" gradientUnits="userSpaceOnUse">
<stop stop-color="#EBF4FF"/>
<stop offset="1" stop-color="#EBF4FF" stop-opacity="0"/>
</linearGradient>
<linearGradient id="paint7_linear_6535_8006" x1="434.652" y1="551.846" x2="434.652" y2="588.152" gradientUnits="userSpaceOnUse">
<stop stop-color="#EBF4FF"/>
<stop offset="1" stop-color="#EBF4FF" stop-opacity="0"/>
</linearGradient>
<linearGradient id="paint8_linear_6535_8006" x1="407.033" y1="155.568" x2="407.033" y2="229.075" gradientUnits="userSpaceOnUse">
<stop stop-color="#E13FC2"/>
<stop offset="1" stop-color="#E13FC2" stop-opacity="0"/>
</linearGradient>
<linearGradient id="paint9_linear_6535_8006" x1="449.473" y1="155.571" x2="449.473" y2="229.077" gradientUnits="userSpaceOnUse">
<stop stop-color="#E13FC2"/>
<stop offset="1" stop-color="#E13FC2" stop-opacity="0"/>
</linearGradient>
<linearGradient id="paint10_linear_6535_8006" x1="942.679" y1="23.3594" x2="761.502" y2="132.233" gradientUnits="userSpaceOnUse">
<stop stop-color="#B7F4EE" stop-opacity="0"/>
<stop offset="0.58262" stop-color="#B7F4EE"/>
</linearGradient>
<radialGradient id="paint11_radial_6535_8006" cx="0" cy="0" r="1" gradientUnits="userSpaceOnUse" gradientTransform="translate(25.135 25.135) rotate(90) scale(25.135)">
<stop offset="0.416462" stop-color="#B7F4EE"/>
<stop offset="1" stop-color="#B7F4EE" stop-opacity="0"/>
</radialGradient>
<linearGradient id="paint12_linear_6535_8006" x1="414.075" y1="83.1772" x2="414.075" y2="130.549" gradientUnits="userSpaceOnUse">
<stop stop-color="#92EFE6"/>
<stop offset="1" stop-color="#B7F4EE" stop-opacity="0"/>
</linearGradient>
<linearGradient id="paint13_linear_6535_8006" x1="441.425" y1="83.1802" x2="441.425" y2="130.552" gradientUnits="userSpaceOnUse">
<stop stop-color="#92EFE6"/>
<stop offset="1" stop-color="#B7F4EE" stop-opacity="0"/>
</linearGradient>
<linearGradient id="paint14_linear_6535_8006" x1="698.675" y1="132.19" x2="698.675" y2="203.084" gradientUnits="userSpaceOnUse">
<stop stop-color="#92EFE6"/>
<stop offset="1" stop-color="#B7F4EE" stop-opacity="0"/>
</linearGradient>
<linearGradient id="paint15_linear_6535_8006" x1="739.606" y1="132.194" x2="739.606" y2="203.089" gradientUnits="userSpaceOnUse">
<stop stop-color="#92EFE6"/>
<stop offset="1" stop-color="#B7F4EE" stop-opacity="0"/>
</linearGradient>
<linearGradient id="paint16_linear_6535_8006" x1="275.237" y1="477.716" x2="275.237" y2="548.61" gradientUnits="userSpaceOnUse">
<stop stop-color="#92EFE6"/>
<stop offset="1" stop-color="#B7F4EE" stop-opacity="0"/>
</linearGradient>
<linearGradient id="paint17_linear_6535_8006" x1="316.168" y1="477.721" x2="316.168" y2="548.615" gradientUnits="userSpaceOnUse">
<stop stop-color="#92EFE6"/>
<stop offset="1" stop-color="#B7F4EE" stop-opacity="0"/>
</linearGradient>
<linearGradient id="paint18_linear_6535_8006" x1="879.022" y1="687.29" x2="615.07" y2="533.81" gradientUnits="userSpaceOnUse">
<stop stop-color="#FF6BE4" stop-opacity="0"/>
<stop offset="0.282928" stop-color="#FF6BE4"/>
<stop offset="1" stop-color="#B7F4EE"/>
</linearGradient>
<linearGradient id="paint19_linear_6535_8006" x1="312.671" y1="525.653" x2="312.671" y2="561.959" gradientUnits="userSpaceOnUse">
<stop stop-color="#EBF4FF"/>
<stop offset="1" stop-color="#EBF4FF" stop-opacity="0"/>
</linearGradient>
<linearGradient id="paint20_linear_6535_8006" x1="333.632" y1="525.655" x2="333.632" y2="561.961" gradientUnits="userSpaceOnUse">
<stop stop-color="#EBF4FF"/>
<stop offset="1" stop-color="#EBF4FF" stop-opacity="0"/>
</linearGradient>
<linearGradient id="paint21_linear_6535_8006" x1="313.356" y1="-33.8911" x2="580.376" y2="122.054" gradientUnits="userSpaceOnUse">
<stop stop-color="#FF6AE4" stop-opacity="0"/>
<stop offset="0.432672" stop-color="#FF6BE4"/>
<stop offset="1" stop-color="#B7F4EE"/>
</linearGradient>
<linearGradient id="paint22_linear_6535_8006" x1="645.204" y1="-38.3682" x2="888.805" y2="102.355" gradientUnits="userSpaceOnUse">
<stop offset="0.253648" stop-color="#B7F4EE" stop-opacity="0"/>
<stop offset="1" stop-color="#B7F4EE"/>
</linearGradient>
<radialGradient id="paint23_radial_6535_8006" cx="0" cy="0" r="1" gradientUnits="userSpaceOnUse" gradientTransform="translate(25.135 25.135) rotate(90) scale(25.135)">
<stop offset="0.416462" stop-color="#B7F4EE"/>
<stop offset="1" stop-color="#B7F4EE" stop-opacity="0"/>
</radialGradient>
<radialGradient id="paint24_radial_6535_8006" cx="0" cy="0" r="1" gradientUnits="userSpaceOnUse" gradientTransform="translate(25.135 25.135) rotate(90) scale(25.135)">
<stop offset="0.416462" stop-color="#B7F4EE"/>
<stop offset="1" stop-color="#B7F4EE" stop-opacity="0"/>
</radialGradient>
<radialGradient id="paint25_radial_6535_8006" cx="0" cy="0" r="1" gradientUnits="userSpaceOnUse" gradientTransform="translate(25.0606 25.0606) rotate(90) scale(25.0606)">
<stop offset="0.416462" stop-color="#FF6BE4"/>
<stop offset="1" stop-color="#FF9FF2" stop-opacity="0"/>
</radialGradient>
<radialGradient id="paint26_radial_6535_8006" cx="0" cy="0" r="1" gradientUnits="userSpaceOnUse" gradientTransform="translate(25.0606 25.0606) rotate(90) scale(25.0606)">
<stop offset="0.416462" stop-color="#FF6BE4"/>
<stop offset="1" stop-color="#FF9FF2" stop-opacity="0"/>
</radialGradient>
<linearGradient id="paint27_linear_6535_8006" x1="16.3931" y1="661.012" x2="241.295" y2="531.682" gradientUnits="userSpaceOnUse">
<stop offset="0.161103" stop-color="#B7F4EE" stop-opacity="0"/>
<stop offset="0.58262" stop-color="#B7F4EE"/>
</linearGradient>
<radialGradient id="paint28_radial_6535_8006" cx="0" cy="0" r="1" gradientUnits="userSpaceOnUse" gradientTransform="translate(16.9488 16.9488) rotate(90) scale(16.9488)">
<stop offset="0.416462" stop-color="#B7F4EE"/>
<stop offset="1" stop-color="#B7F4EE" stop-opacity="0"/>
</radialGradient>
<radialGradient id="paint29_radial_6535_8006" cx="0" cy="0" r="1" gradientUnits="userSpaceOnUse" gradientTransform="translate(16.9488 16.9488) rotate(90) scale(16.9488)">
<stop offset="0.416462" stop-color="#B7F4EE"/>
<stop offset="1" stop-color="#B7F4EE" stop-opacity="0"/>
</radialGradient>
<linearGradient id="paint30_linear_6535_8006" x1="699.827" y1="323.666" x2="699.827" y2="389.63" gradientUnits="userSpaceOnUse">
<stop stop-color="#EBF4FF"/>
<stop offset="1" stop-color="#EBF4FF" stop-opacity="0"/>
</linearGradient>
<linearGradient id="paint31_linear_6535_8006" x1="737.912" y1="323.669" x2="737.912" y2="389.633" gradientUnits="userSpaceOnUse">
<stop stop-color="#EBF4FF"/>
<stop offset="1" stop-color="#EBF4FF" stop-opacity="0"/>
</linearGradient>
</defs>
</svg>
